<?xml version="1.0" standalone="no"?>
<!DOCTYPE svg PUBLIC "-//W3C//DTD SVG 20010904//EN"
 "http://www.w3.org/TR/2001/REC-SVG-20010904/DTD/svg10.dtd">
<svg version="1.0" xmlns="http://www.w3.org/2000/svg"
 width="3000.000000pt" height="2000.000000pt" viewBox="0 0 3000.000000 2000.000000"
 preserveAspectRatio="xMidYMid meet">

<g transform="translate(0.000000,2000.000000) scale(0.100000,-0.100000)"
fill="#000000" stroke="none">
<path d="M3567 18443 c-4 -3 -7 -890 -7 -1969 l0 -1963 -76 35 c-136 63 -209
78 -389 78 -134 0 -173 -4 -240 -22 -180 -50 -367 -172 -483 -316 -71 -88
-150 -245 -178 -351 -26 -97 -27 -371 -1 -463 75 -274 255 -491 508 -612 140
-66 220 -83 394 -83 163 0 251 17 363 68 51 23 57 24 79 10 l23 -15 0 -1189 0
-1189 -45 -104 c-24 -57 -51 -137 -60 -178 -40 -192 -57 -474 -34 -596 6 -32
27 -94 47 -138 l36 -78 -12 -237 c-21 -411 -56 -677 -122 -936 -57 -224 -116
-370 -204 -508 -60 -94 -70 -146 -57 -315 13 -186 26 -542 26 -737 0 -125 -4
-163 -23 -230 -54 -193 -52 -343 9 -462 l31 -61 -50 -119 c-118 -276 -217
-611 -267 -903 -48 -275 -48 -280 -52 -1237 l-4 -913 -64 0 -64 0 6 568 c6
558 6 568 29 628 49 131 51 283 4 359 -19 30 -20 50 -20 327 0 162 3 491 7
731 l6 437 22 0 c37 0 124 50 161 93 112 131 196 381 235 702 16 128 15 450 0
585 -62 531 -266 863 -476 776 -152 -64 -267 -298 -332 -676 -26 -153 -26
-638 0 -795 61 -358 177 -601 321 -666 l26 -12 0 -281 c0 -445 -13 -1084 -21
-1046 -4 19 -22 112 -39 205 -94 512 -278 1244 -472 1885 -44 146 -85 280 -90
299 -9 31 -7 36 31 75 73 75 101 175 101 360 0 351 -161 770 -373 974 -110
105 -205 134 -293 91 -219 -106 -186 -715 63 -1144 119 -207 244 -317 375
-334 l51 -6 84 -280 c114 -383 199 -688 288 -1041 84 -332 175 -744 166 -744
-4 0 -24 44 -45 98 -81 207 -268 561 -407 768 l-67 102 20 42 c152 307 -344
1002 -872 1220 -223 92 -402 71 -476 -56 -36 -60 -43 -167 -20 -268 52 -220
258 -519 492 -715 239 -199 454 -303 634 -305 74 -1 92 3 140 26 30 15 57 24
60 19 42 -60 173 -274 229 -372 164 -290 362 -769 385 -931 l7 -46 -58 18
c-32 10 -84 21 -116 25 l-57 7 0 57 c-1 120 -48 297 -111 424 -105 207 -290
385 -495 477 -56 25 -78 41 -108 81 -158 212 -670 371 -1059 331 -332 -35
-488 -169 -403 -347 93 -195 477 -359 897 -382 261 -14 505 54 581 160 13 17
27 56 33 85 l11 54 78 -41 c302 -156 513 -478 534 -813 l5 -88 -31 0 c-26 0
-35 6 -51 38 -11 21 -38 55 -60 75 -85 77 -183 107 -358 112 -66 1 -125 5
-131 9 -5 3 -40 10 -79 16 -246 38 -684 -145 -956 -400 -152 -143 -226 -269
-227 -386 0 -128 94 -194 275 -194 388 0 984 377 1095 692 26 76 25 124 -4
183 l-25 48 92 -6 c124 -9 204 -35 279 -90 24 -17 78 -88 78 -101 0 -2 -17 -7
-37 -10 -63 -12 -193 -82 -271 -147 -324 -269 -485 -820 -353 -1207 101 -293
301 -397 478 -248 50 42 101 126 162 266 31 74 72 160 89 190 l32 55 0 -297 0
-298 -392 -2 -393 -3 -12 -65 c-102 -552 -76 -1168 73 -1749 19 -73 34 -137
34 -142 0 -5 -312 -9 -730 -9 -723 0 -730 0 -730 -20 0 -20 7 -20 1198 -22
658 -2 1838 -1 2622 1 l1425 3 135 -25 c329 -62 583 -88 895 -90 283 -2 286
-2 320 72 l18 41 4961 -5 c2729 -3 5076 -5 5216 -5 140 0 3037 3 6438 5 6166
5 6182 5 6182 25 0 20 -9 20 -826 22 l-827 3 -79 220 c-43 121 -101 283 -127
360 -96 273 -592 1670 -601 1693 -6 13 -10 27 -10 32 0 6 47 10 110 10 81 0
110 3 110 13 0 11 -15 112 -24 168 -5 26 -4 26 87 39 105 14 304 61 366 86 29
12 43 24 48 43 4 14 -4 85 -18 161 -30 167 -29 241 5 665 14 176 28 349 31
385 3 36 21 263 40 505 19 242 37 469 40 505 7 87 44 557 50 645 3 39 12 154
20 256 l15 185 311 1240 c171 681 320 1280 330 1329 65 319 12 662 -147 963
-35 66 -54 115 -54 137 0 216 -281 1670 -379 1963 -35 106 -129 296 -208 424
-44 71 -53 92 -42 99 8 5 20 9 27 9 6 0 12 3 12 8 0 7 -118 253 -125 261 -3 2
-32 -7 -65 -19 -33 -12 -63 -20 -66 -18 -3 3 2 24 11 46 15 36 26 45 98 81
163 81 380 265 435 368 51 98 66 170 65 328 0 160 -17 256 -67 381 l-32 82 36
11 c21 6 66 38 102 71 l66 60 31 -16 c75 -38 162 -26 229 32 51 44 65 80 60
154 -8 107 -99 208 -236 261 -80 31 -201 32 -257 2 -54 -28 -89 -68 -116 -127
-23 -54 -21 -108 7 -151 15 -22 14 -25 -23 -58 l-37 -35 -46 40 c-91 80 -224
147 -376 188 -67 19 -114 23 -304 26 -124 3 -240 2 -258 -1 -36 -7 -105 -63
-134 -110 -17 -29 -18 21 -18 1826 0 1429 -3 1858 -12 1867 -9 9 -2606 12
-11623 12 -6387 0 -11615 -3 -11618 -7z m22463 -1088 l0 -495 -10845 0 -10845
0 0 488 c0 269 3 492 7 495 3 4 4884 7 10845 7 l10838 0 0 -495z m10 -1710 c0
-646 -2 -1175 -5 -1175 -6 0 -14 17 -177 390 -66 151 -133 304 -150 340 -84
184 -106 247 -128 375 l-22 130 -76 76 c-43 42 -93 96 -112 119 -40 49 -108
96 -160 110 -20 5 -238 41 -485 79 -248 38 -702 108 -1010 156 -614 95 -618
95 -723 45 -133 -63 -182 -143 -218 -363 -43 -253 -23 -359 86 -461 78 -73
128 -90 355 -125 110 -16 565 -86 1012 -155 447 -70 828 -126 847 -126 51 0
152 34 192 65 l36 28 37 -20 c20 -11 48 -23 63 -27 15 -3 29 -14 32 -24 12
-45 216 -712 278 -912 38 -124 108 -349 155 -500 94 -306 109 -344 147 -379
l26 -24 0 -779 c0 -428 -4 -778 -8 -778 -4 0 -86 7 -182 15 -96 8 -281 19
-410 25 -258 11 -413 27 -897 96 l-322 45 -148 69 -148 69 -72 203 c-100 281
-102 285 -131 320 -64 75 -180 78 -260 5 -27 -25 -54 -110 -46 -146 4 -14 42
-128 85 -252 44 -124 79 -232 79 -240 0 -9 -11 -21 -25 -27 -76 -35 -87 -169
-19 -227 6 -5 14 -34 17 -64 12 -106 66 -161 157 -161 l45 0 99 -277 c54 -153
157 -442 228 -643 71 -201 151 -427 178 -503 28 -76 50 -141 50 -146 0 -5 -21
-14 -46 -20 -248 -63 -488 -236 -573 -414 -34 -71 -129 -329 -227 -617 l-29
-85 -90 -5 c-71 -4 -90 -8 -90 -20 0 -12 17 -16 83 -18 60 -2 83 -6 79 -15 -2
-7 -16 -49 -31 -94 l-27 -83 -177 -2 -177 -3 0 -150 0 -150 123 -3 c81 -2 122
-6 122 -14 0 -6 -56 -185 -124 -397 -177 -551 -228 -712 -471 -1491 -119 -382
-222 -713 -229 -735 l-13 -40 -69 -5 c-52 -4 -69 -9 -69 -20 0 -11 16 -16 62
-20 l61 -5 -48 -155 c-65 -208 -251 -810 -290 -937 l-31 -103 -1799 0 -1800 0
0 43 c0 23 9 471 20 995 16 806 18 1056 10 1619 -6 366 -9 668 -7 669 2 2 151
62 332 135 l328 131 99 -52 c91 -48 103 -51 145 -45 25 4 52 9 59 12 11 4 14
-10 14 -69 0 -80 5 -94 27 -77 9 8 13 36 13 84 l0 73 94 46 c96 46 146 91 146
129 l0 20 23 -21 c34 -32 73 -28 113 12 19 19 34 44 34 55 0 26 -23 73 -44 90
-9 8 -16 17 -16 21 0 4 33 19 73 35 39 15 77 33 83 39 6 6 23 108 38 226 15
118 30 223 32 232 4 14 19 18 77 20 56 2 72 6 72 18 0 12 -16 16 -72 18 l-72
3 5 27 c11 64 154 1149 154 1174 0 20 -5 28 -18 28 -10 0 -173 -45 -362 -101
-205 -59 -353 -98 -367 -94 -14 3 -25 0 -30 -10 -5 -8 -124 -48 -288 -95 -154
-45 -315 -92 -358 -105 -56 -17 -79 -20 -82 -12 -4 11 -45 170 -195 761 -38
148 -73 272 -77 276 -4 4 -108 37 -229 73 -177 52 -234 73 -280 103 -31 22
-59 44 -61 51 -2 6 18 18 44 27 135 45 203 179 203 401 0 203 -69 550 -211
1066 l-40 145 33 54 c31 50 33 59 33 140 0 85 -1 89 -39 144 -149 217 -613
284 -894 130 l-63 -34 -2769 0 -2770 0 -2 -2087 c-2 -1149 -2 -2091 0 -2095 2
-5 979 -8 2173 -8 l2169 0 0 -32 c-1 -48 -38 -479 -42 -483 -1 -1 -18 -10 -35
-19 -18 -9 -33 -19 -33 -22 0 -3 12 -25 26 -50 l26 -44 -637 0 c-601 0 -636
-1 -633 -17 3 -17 43 -18 648 -21 l645 -3 64 -115 c92 -164 82 -155 129 -119
22 17 55 42 75 58 l35 28 252 10 c139 5 254 8 256 6 20 -20 34 -267 18 -319
-5 -17 -67 -18 -1062 -20 -932 -3 -1057 -5 -1057 -18 0 -13 125 -15 1059 -18
l1058 -2 -6 -198 c-4 -108 -9 -214 -12 -234 l-6 -38 -1046 -2 c-988 -3 -1047
-4 -1050 -20 -3 -17 52 -18 1048 -18 l1052 0 -6 -172 c-4 -95 -9 -203 -12
-240 l-6 -68 -1039 0 c-881 0 -1039 -2 -1039 -14 0 -8 7 -17 16 -20 9 -4 476
-6 1038 -6 l1021 1 2 -236 1 -235 -1036 -2 c-914 -3 -1037 -5 -1037 -18 0 -13
123 -15 1038 -18 l1037 -2 0 -65 c0 -104 19 -1150 25 -1393 l6 -222 -5018 0
-5018 0 -19 53 c-24 68 -233 628 -289 777 -119 311 -235 611 -292 755 -35 88
-99 252 -143 365 l-79 205 -13 160 c-6 88 -16 196 -21 240 -14 124 -12 173 10
204 35 49 45 110 26 161 -45 123 -54 529 -16 775 28 186 135 602 161 628 4 5
25 0 46 -11 22 -11 50 -23 64 -27 14 -4 195 -75 404 -157 l378 -150 822 6
c451 3 977 6 1169 6 l347 0 0 44 c0 41 2 44 31 50 17 3 60 6 95 6 69 0 311 31
437 56 64 13 110 33 245 106 92 49 175 97 184 105 10 9 22 31 28 49 l11 34
467 2 467 3 3 2064 c2 1645 0 2066 -10 2073 -15 9 -6418 11 -6442 2 -11 -4
-16 -19 -16 -49 0 -40 -3 -45 -37 -62 -33 -16 -45 -33 -95 -133 l-57 -115 0
2163 -1 2162 10850 0 10850 0 0 -1175z m-2520 590 c195 -31 443 -69 550 -85
107 -17 251 -39 320 -50 69 -11 258 -40 420 -65 162 -24 319 -49 349 -55 97
-18 181 -82 226 -171 14 -27 25 -52 25 -56 0 -4 -28 20 -62 54 -65 64 -107 88
-139 78 -29 -10 -59 -55 -59 -89 0 -44 48 -115 106 -158 l50 -37 11 -104 c7
-57 19 -125 28 -151 16 -46 16 -48 -9 -90 -50 -85 -141 -143 -239 -153 -36 -3
-199 18 -537 71 -267 41 -721 112 -1010 156 -575 89 -595 93 -668 170 -92 94
-106 175 -72 400 30 197 62 266 153 329 47 32 125 59 172 60 17 1 190 -24 385
-54z m1837 -497 c110 -109 117 -117 172 -233 71 -150 141 -313 141 -328 -1
-11 -165 -132 -178 -132 -4 0 -13 21 -21 48 -10 33 -20 47 -33 47 -24 0 -98
30 -98 40 0 12 52 90 61 90 3 0 26 -9 50 -19 61 -27 103 -30 107 -10 2 13 -14
22 -67 38 -104 32 -123 66 -137 257 l-7 84 -50 37 c-58 43 -107 106 -107 139
0 24 24 54 42 54 6 0 62 -51 125 -112z m167 -75 c4 -21 9 -47 12 -58 2 -11 -4
-4 -15 15 -10 19 -28 44 -40 54 -12 11 -21 30 -21 43 l0 24 29 -20 c19 -14 31
-33 35 -58z m253 -721 c44 -103 186 -426 313 -718 l233 -532 98 -73 c110 -81
110 -81 84 -179 -8 -30 -15 -85 -15 -122 0 -61 3 -71 29 -100 l29 -33 151 -3
151 -4 45 -72 c37 -60 95 -182 95 -200 0 -2 -28 -14 -62 -25 -35 -12 -68 -25
-73 -29 -6 -4 -9 -67 -7 -164 4 -150 5 -158 24 -158 15 0 18 -4 12 -22 -3 -13
-8 -24 -9 -26 -2 -3 -635 635 -783 789 l-83 86 -53 169 c-30 93 -118 376 -196
629 -211 686 -248 808 -252 827 -2 12 24 37 87 82 50 36 92 65 95 66 3 0 42
-85 87 -188z m-22417 -391 c243 -82 420 -233 530 -450 146 -292 125 -619 -60
-901 l-49 -75 59 -194 c33 -107 59 -195 58 -197 -2 -1 -90 39 -196 88 l-193
90 -57 -25 c-250 -110 -509 -103 -757 21 -533 264 -657 972 -246 1405 102 108
231 190 372 236 107 35 147 40 299 37 133 -2 153 -5 240 -35z m23596 -64 c1
-72 42 -160 131 -279 80 -105 85 -125 53 -188 -35 -69 -22 -108 49 -144 16 -9
32 -25 36 -36 8 -25 16 -25 48 0 36 28 128 70 155 70 39 0 72 -43 72 -92 0
-137 -251 -317 -331 -237 -20 20 -49 20 -49 0 0 -5 14 -21 31 -35 39 -33 107
-35 164 -6 22 11 39 20 40 20 0 0 0 -62 0 -138 0 -126 2 -140 24 -179 29 -51
65 -67 131 -61 49 5 50 5 44 -21 -17 -71 -15 -70 -264 -157 -129 -46 -242 -83
-250 -83 -10 -1 -25 25 -42 72 -15 39 -50 107 -77 150 l-50 77 -140 0 c-85 0
-150 5 -166 12 -40 18 -49 71 -29 160 10 41 19 132 21 205 l5 132 -37 60 c-21
33 -35 65 -33 71 2 7 39 31 83 53 43 23 87 53 97 67 10 14 23 52 28 85 18 101
19 105 35 98 9 -3 25 3 36 13 24 22 52 10 57 -25 2 -13 11 -21 23 -21 25 0 25
26 -1 68 -24 38 -63 43 -103 12 l-25 -20 10 37 c14 51 62 145 111 217 49 73
72 96 95 96 14 0 17 -10 18 -53z m-124 11 c-9 -9 -12 -7 -12 12 0 19 3 21 12
12 9 -9 9 -15 0 -24z m911 -1493 c47 -95 47 -95 25 -104 -13 -4 -50 -18 -83
-31 -255 -95 -770 -280 -781 -280 -11 0 -14 25 -14 118 l0 117 178 62 c97 33
274 95 392 136 118 42 220 76 225 76 6 1 32 -42 58 -94z m69 -262 c177 -294
214 -397 323 -898 111 -512 254 -1329 255 -1457 0 -24 -8 -46 -24 -65 -56 -67
-286 -140 -527 -167 -317 -36 -644 -43 -755 -15 -77 20 -79 27 -79 228 1 97 6
209 13 249 l12 73 -61 67 c-113 124 -204 279 -258 445 -13 37 -21 73 -18 80 3
7 157 103 343 212 424 248 417 244 380 258 -9 4 -261 -139 -593 -335 -318
-188 -595 -348 -615 -356 -36 -14 -58 -9 -1010 228 -535 134 -976 246 -981
249 -6 6 9 301 16 308 2 1 77 -9 167 -22 517 -75 843 -110 1120 -120 91 -4
259 -14 374 -23 l209 -18 38 31 c21 16 99 87 174 158 263 246 568 505 700 594
116 78 115 78 275 78 119 0 145 3 145 15 0 22 -67 32 -190 28 -126 -4 -158
-16 -272 -99 -37 -26 -68 -47 -70 -45 -2 1 7 31 18 66 20 57 26 64 62 79 48
19 749 278 758 280 4 0 36 -47 71 -106z m-10997 35 c-139 -154 -245 -396 -245
-563 0 -118 47 -253 130 -376 40 -58 42 -63 31 -99 -27 -89 -6 -220 44 -287
34 -43 115 -83 172 -83 41 0 42 0 63 -56 11 -31 19 -58 18 -59 -2 -2 -84 44
-183 102 -509 297 -526 306 -544 297 -15 -7 -456 -493 -1378 -1518 l-53 -59
-87 41 c-49 22 -319 153 -601 291 -282 138 -519 251 -527 251 -8 0 -81 -58
-162 -128 -81 -70 -359 -310 -618 -532 -483 -415 -688 -592 -1165 -1003 -151
-130 -277 -237 -280 -237 -3 0 -4 918 -2 2040 l2 2040 2721 0 2721 0 -57 -62z
m-5925 28 c-8 -7 -292 -190 -630 -406 -338 -216 -669 -428 -735 -470 -66 -43
-201 -129 -300 -192 -99 -63 -463 -296 -810 -518 -346 -222 -639 -404 -650
-404 -11 -1 -321 192 -690 428 -368 236 -734 470 -813 520 -135 86 -142 92
-135 116 4 14 8 52 8 85 -1 112 -97 269 -234 382 -75 62 -171 113 -212 113
-32 0 -63 -26 -55 -46 7 -18 3 -17 -68 6 -76 26 -167 27 -188 3 -9 -10 -19
-28 -22 -40 -4 -13 -11 -23 -16 -23 -8 0 -705 442 -719 455 -2 3 1410 5 3139
5 2669 0 3142 -2 3130 -14z m-5898 -277 c142 -90 258 -167 258 -170 0 -3 -36
-9 -80 -13 -67 -5 -196 -36 -262 -61 -16 -6 -18 1 -19 81 -2 82 -3 100 -7 146
-3 24 -54 39 -97 27 -52 -15 -70 -52 -90 -188 -9 -64 -20 -127 -24 -141 -8
-24 -9 -23 -29 20 -18 37 -25 89 -42 280 -11 129 -22 248 -26 263 -7 29 -6 29
77 -25 46 -30 200 -128 341 -219z m5968 -1749 l0 -2019 -107 68 c-108 68 -468
298 -2150 1374 -491 315 -893 574 -893 578 0 3 186 124 413 269 1505 963 2064
1321 2377 1521 195 126 356 228 358 229 1 0 2 -909 2 -2020z m-6409 1903 c0
-21 8 -128 18 -238 18 -199 18 -200 55 -265 45 -78 53 -87 65 -74 5 5 21 85
35 178 14 93 33 180 41 192 16 25 56 41 74 29 7 -4 11 -53 11 -128 l0 -122
-34 -27 c-19 -15 -60 -65 -90 -111 -108 -163 -190 -368 -213 -533 l-8 -61
-125 58 -125 57 -3 89 c-4 92 13 394 28 500 11 80 190 465 224 481 37 19 46
14 47 -25z m19134 -154 c25 -27 47 -76 103 -234 39 -110 74 -208 78 -219 5
-12 -21 1 -78 38 -90 60 -97 61 -150 24 -23 -16 -28 -27 -28 -60 0 -42 25 -76
94 -124 l29 -21 -48 -7 c-26 -4 -51 -4 -55 1 -20 22 -172 472 -173 510 -1 118
145 177 228 92z m3161 -87 c9 -14 9 -26 -2 -50 -7 -18 -16 -32 -19 -32 -3 0
-5 23 -5 50 0 53 8 62 26 32z m-8961 -237 c87 -318 146 -589 129 -593 -27 -7
-52 16 -47 43 6 31 -25 62 -135 136 l-77 51 -40 116 c-38 110 -58 141 -70 110
-3 -8 13 -68 37 -133 l43 -119 82 -55 c45 -31 90 -64 100 -73 16 -17 16 -18
-12 -18 -17 0 -67 9 -113 20 -46 11 -85 20 -88 20 -2 0 -4 -11 -4 -24 0 -20
-6 -24 -47 -30 -69 -9 -218 -86 -285 -146 -57 -51 -58 -51 -68 -28 -5 13 -38
95 -73 183 -61 156 -63 162 -49 195 19 47 10 112 -28 202 -37 87 -40 135 -11
176 39 56 200 141 267 142 17 0 68 -11 115 -25 105 -32 150 -28 245 24 38 21
70 38 71 37 1 -1 27 -95 58 -211z m5898 -137 c44 -29 152 -87 241 -129 l161
-75 -4 -112 c-1 -61 -6 -135 -10 -164 l-6 -53 -130 -22 c-159 -28 -339 -39
-377 -25 -39 16 -58 52 -65 119 -5 44 -13 66 -34 91 -53 60 -30 148 44 171 17
5 66 15 107 21 41 6 83 14 93 16 31 9 18 33 -33 59 -102 51 -149 117 -102 144
27 16 31 14 115 -41z m-17334 -470 c190 -122 425 -272 521 -333 96 -62 272
-174 390 -250 339 -216 360 -230 360 -235 0 -4 -200 -133 -1148 -738 l-272
-175 -94 91 c-65 63 -115 101 -162 125 -73 37 -221 87 -256 87 -13 0 -48 28
-92 73 -39 40 -93 91 -119 113 l-48 41 33 82 c38 95 15 88 188 52 103 -22 203
-27 245 -11 34 13 46 44 99 249 l43 167 54 51 c54 51 54 52 53 110 0 33 -14
103 -31 163 -17 58 -37 154 -43 214 -13 116 -30 178 -74 265 -21 41 -25 56
-15 67 6 8 14 14 16 14 3 0 161 -100 352 -222z m10517 173 c22 -10 57 -38 76
-62 l36 -44 4 -180 c6 -198 21 -267 77 -349 92 -133 218 -201 516 -275 l150
-38 2 -69 c9 -307 11 -535 4 -528 -5 5 -51 70 -103 144 -84 119 -96 142 -106
198 l-11 62 -243 239 -243 239 -49 138 c-27 77 -54 145 -59 152 -5 6 -30 12
-56 12 -53 0 -116 27 -148 61 -61 67 -75 253 -22 296 34 27 120 29 175 4z
m-10896 -73 c46 -94 50 -114 21 -98 -25 13 -64 -1 -85 -32 -9 -12 -16 -26 -16
-30 0 -16 36 -7 53 12 19 22 33 25 42 10 5 -8 11 -8 20 0 15 12 17 1 36 -155
7 -55 23 -131 36 -170 13 -38 26 -92 29 -120 6 -48 4 -53 -27 -86 -19 -19 -43
-42 -55 -50 -16 -10 -28 -43 -49 -129 -33 -138 -73 -270 -88 -289 -17 -21
-190 -8 -310 23 -54 15 -99 26 -100 26 -2 0 -20 -42 -41 -94 l-38 -94 -67 34
c-71 36 -285 94 -498 135 -82 15 -123 27 -123 36 0 18 51 257 56 262 3 3 12
-6 21 -18 15 -23 19 -23 165 -19 189 4 183 -1 192 165 10 184 28 269 67 309
18 19 52 41 75 50 62 24 94 4 134 -83 57 -126 64 -138 85 -138 26 0 55 46 99
156 28 68 51 107 90 150 102 113 115 173 56 260 -16 24 -30 47 -30 52 0 4 47
7 105 7 l106 0 39 -82z m10635 -306 c176 -103 330 -197 343 -209 16 -17 22
-34 22 -68 0 -42 -8 -58 -75 -155 l-76 -109 -317 -189 c-174 -104 -347 -203
-384 -220 -160 -73 -279 -159 -304 -217 -17 -42 -40 -166 -63 -352 -22 -171
-86 -792 -97 -938 -3 -49 -9 -117 -13 -150 l-6 -60 -2132 -3 c-1186 -1 -2133
2 -2133 7 0 4 267 238 593 518 325 280 693 597 817 704 124 106 340 292 480
413 140 120 264 227 276 237 20 19 28 16 628 -276 375 -183 612 -293 620 -288
11 7 199 212 341 373 28 31 174 193 325 361 151 167 385 427 520 576 l245 272
35 -21 c19 -11 179 -104 355 -206z m-12331 147 c125 -56 140 -66 153 -97 14
-33 10 -54 -67 -406 l-82 -371 -42 -41 c-42 -41 -42 -41 -139 -47 -166 -11
-269 -47 -359 -126 -158 -139 -321 -552 -335 -846 -3 -66 -7 -121 -8 -123 -2
-2 -11 21 -21 50 -16 44 -19 83 -19 238 1 296 30 434 140 664 150 312 615
1178 630 1172 5 -2 72 -32 149 -67z m20226 -141 c228 -56 419 -105 425 -110 5
-4 -26 -8 -69 -8 -68 0 -77 -2 -74 -17 3 -15 16 -19 78 -21 88 -3 120 3 120
23 0 18 -8 19 75 -4 39 -10 82 -21 98 -25 20 -5 27 -12 27 -30 0 -28 27 -56
34 -35 15 50 -7 52 358 -39 189 -47 349 -89 356 -95 9 -7 12 -280 12 -1305 l0
-1295 -79 -121 c-169 -262 -271 -463 -271 -540 0 -18 68 -234 150 -480 83
-246 150 -451 150 -457 0 -6 -44 -9 -111 -7 l-112 3 -63 175 c-79 220 -399
1127 -408 1157 -7 22 -5 22 81 25 l88 3 0 150 0 150 -145 3 -145 3 -82 232
c-94 267 -461 1303 -593 1672 -49 138 -148 417 -220 620 -72 204 -137 387
-145 408 -8 20 -15 41 -15 46 0 9 21 17 50 20 8 1 202 -45 430 -101z m-6899
49 c80 -40 145 -45 204 -17 34 16 49 20 58 11 8 -8 6 -16 -7 -30 -48 -53 -172
-54 -274 -2 -57 29 -73 47 -55 65 4 3 9 5 12 4 4 -2 31 -15 62 -31z m6413 -74
c80 -226 415 -1170 641 -1808 63 -176 152 -428 199 -560 46 -132 157 -442 244
-690 88 -247 224 -630 302 -850 78 -220 179 -506 225 -635 46 -129 145 -408
220 -620 75 -212 174 -491 220 -620 46 -129 158 -446 250 -705 154 -434 275
-776 475 -1340 43 -121 153 -431 245 -690 91 -258 193 -544 225 -635 33 -91
132 -370 220 -620 89 -250 193 -542 231 -649 38 -107 69 -198 69 -203 0 -4
-65 -8 -144 -8 l-143 0 -28 78 c-30 86 -208 587 -495 1397 -106 297 -229 646
-275 775 -46 129 -147 415 -225 635 -78 220 -191 538 -251 708 -60 169 -158
445 -218 615 -60 169 -172 485 -249 702 -77 217 -202 568 -277 780 -75 212
-177 498 -225 635 -49 138 -150 423 -225 635 -252 708 -356 1003 -470 1325
-62 176 -175 493 -250 705 -75 212 -176 498 -225 635 -49 138 -154 434 -234
660 -80 225 -144 410 -143 411 1 1 61 11 132 22 72 10 132 20 136 21 3 0 22
-47 43 -106z m-19402 -239 l126 -191 -35 -154 c-19 -84 -36 -156 -39 -158 -2
-3 -47 3 -99 13 l-95 18 0 341 c0 188 4 337 8 332 5 -6 65 -96 134 -201z
m-182 -229 l0 -235 -56 0 c-49 0 -56 2 -52 18 3 10 27 116 53 235 27 119 50
217 52 217 1 0 3 -106 3 -235z m13001 -254 c66 -66 71 -112 27 -263 -18 -62
-34 -115 -35 -117 -5 -7 -69 57 -335 331 l-230 238 77 110 78 110 186 -181
c102 -100 207 -203 232 -228z m9395 94 l62 -71 -9 -49 c-5 -28 -12 -127 -15
-221 -6 -145 -4 -180 10 -222 14 -44 15 -71 6 -214 -5 -90 -10 -182 -10 -204
0 -36 -10 -56 -71 -138 -39 -53 -72 -96 -75 -96 -2 0 -4 303 -4 673 l1 672 22
-30 c12 -16 50 -62 83 -100z m-9701 -236 c160 -164 295 -298 302 -298 17 -1
20 7 54 121 17 57 34 106 37 110 4 4 57 -64 117 -149 61 -86 116 -158 122
-161 8 -2 30 33 57 91 l44 95 100 -52 c72 -36 104 -48 112 -40 7 7 -1 67 -31
208 -22 109 -39 199 -37 202 3 2 70 -15 151 -39 l147 -42 0 -75 c0 -41 -4
-194 -10 -340 -5 -146 -11 -357 -15 -470 -3 -113 -7 -275 -10 -360 -3 -85 -7
-236 -10 -335 -3 -99 -8 -237 -11 -306 l-6 -127 -38 5 c-110 15 -213 -42 -384
-210 l-101 -100 -600 78 c-330 42 -601 78 -603 80 -1 1 -10 45 -18 96 -9 52
-20 98 -25 103 -5 6 -23 3 -45 -8 -20 -9 -38 -16 -39 -14 -1 2 6 147 16 323
47 849 45 805 24 805 -20 0 -22 -21 -40 -380 -8 -173 -17 -342 -20 -375 -2
-33 -7 -133 -11 -222 -4 -88 -10 -166 -13 -171 -6 -10 -702 -355 -706 -350 -5
8 67 862 106 1243 48 477 88 737 123 787 41 58 209 154 419 238 95 39 122 54
120 67 -1 13 54 52 210 145 117 71 214 127 217 127 3 -1 136 -135 295 -300z
m-8640 -277 c374 -239 817 -523 985 -630 168 -107 442 -283 610 -390 168 -108
393 -251 500 -320 107 -68 202 -130 210 -138 21 -20 -1269 -20 -1315 0 -36 16
-37 15 109 50 128 30 156 50 156 108 0 60 -22 68 -155 57 -276 -22 -361 -31
-389 -43 -31 -13 -97 -79 -150 -148 l-28 -38 -216 0 -217 0 -290 70 c-159 38
-546 130 -860 205 -313 74 -578 139 -587 143 -9 4 -152 157 -318 341 -248 273
-300 336 -288 346 7 7 220 144 473 305 253 162 561 359 685 438 124 79 234
150 245 156 17 11 28 7 90 -32 38 -25 376 -241 750 -480z m9388 445 c43 -27
77 -53 75 -57 -2 -4 -39 -89 -83 -189 l-80 -180 -7 52 c-3 29 -6 139 -7 245
-1 152 2 192 12 186 6 -4 47 -30 90 -57z m-13228 -88 c485 -94 628 -135 733
-209 78 -55 200 -165 192 -173 -13 -14 -504 50 -721 93 -212 43 -473 135 -602
213 l-39 24 26 30 c63 75 124 79 411 22z m13358 -171 c15 -72 25 -133 23 -135
-2 -2 -36 12 -74 31 l-71 36 41 100 c22 55 43 100 47 100 3 0 19 -59 34 -132z
m-13833 102 c14 -26 223 -127 359 -175 210 -72 420 -113 816 -160 313 -37 444
-68 577 -137 93 -48 182 -137 607 -608 l283 -315 152 -38 c83 -20 358 -87 611
-147 1084 -258 1298 -309 1300 -312 2 -2 6 -75 10 -164 l8 -161 -1149 -6
-1149 -6 -544 215 c-299 118 -550 213 -557 210 -33 -13 -8 -34 76 -65 50 -18
90 -37 90 -42 0 -5 -7 -26 -15 -46 -58 -151 -135 -481 -154 -668 -27 -266 -20
-598 16 -687 23 -58 13 -131 -23 -169 -143 -151 -568 -162 -1324 -33 -113 19
-374 68 -580 109 l-375 74 -51 55 c-77 82 -109 153 -109 246 0 67 4 81 34 135
122 214 170 329 220 515 85 322 126 683 141 1240 8 330 9 337 40 455 37 142
113 337 168 432 95 162 202 237 372 262 102 15 138 13 150 -9z m14284 -548
c60 -235 111 -432 113 -438 3 -7 -11 -17 -30 -23 -33 -11 -35 -15 -41 -69 -8
-71 -63 -704 -72 -829 -4 -50 -9 -96 -13 -101 -4 -6 -29 -4 -68 6 l-63 17 0
40 c0 22 9 308 20 635 10 327 22 729 26 893 4 163 10 297 13 297 3 0 55 -192
115 -428z m1561 -478 c-31 -231 -80 -601 -110 -822 -30 -222 -55 -410 -55
-417 0 -15 -166 -84 -189 -78 -13 3 -16 20 -16 96 0 185 -56 202 -228 69 -85
-65 -141 -142 -184 -252 -20 -52 -41 -100 -47 -107 -12 -13 -795 -328 -801
-321 -2 2 0 51 6 108 5 58 25 290 44 515 19 226 37 435 40 465 21 230 55 633
57 668 1 27 8 46 17 51 15 8 147 47 1006 298 198 57 394 115 435 127 41 13 76
22 78 21 1 -2 -22 -191 -53 -421z m4164 172 c23 -66 38 -122 34 -126 -4 -3
-35 -17 -67 -30 -97 -38 -148 -71 -212 -134 -78 -79 -85 -94 -353 -906 -345
-1042 -846 -2641 -1556 -4960 -75 -245 -151 -494 -170 -555 -64 -210 -384
-1262 -515 -1695 -72 -239 -137 -453 -144 -475 l-13 -40 -142 -3 -143 -3 6 25
c6 24 331 1099 487 1611 455 1490 938 3058 1185 3850 606 1936 950 2982 1049
3190 44 92 126 181 232 251 86 58 263 139 274 126 3 -4 25 -61 48 -126z m167
-168 c3 -13 64 -186 135 -386 71 -199 129 -367 129 -372 0 -5 -35 -10 -77 -12
-61 -2 -78 -6 -78 -18 0 -12 19 -16 89 -20 l88 -5 33 -92 33 -93 -534 0 c-294
0 -534 2 -534 4 0 9 203 594 238 685 32 85 44 104 101 161 70 69 136 107 256
146 90 30 112 30 121 2z m-14643 -570 c2 -7 1 -23 -4 -35 -9 -25 -50 -39 -219
-74 -156 -32 -161 -45 -41 -93 62 -25 72 -26 272 -26 l208 0 -8 -22 c-9 -25
-347 -213 -401 -222 -113 -20 -399 -57 -481 -63 l-96 -6 -6 69 c-4 38 -7 97
-7 130 l0 61 42 6 c26 3 49 14 58 26 87 114 149 185 176 202 31 19 184 38 414
52 30 2 62 4 71 5 9 1 19 -4 22 -10z m-723 -227 c0 -14 -95 -24 -156 -16 -89
11 -61 25 51 25 58 0 105 -4 105 -9z m7480 -237 c12 -80 11 -87 -6 -104 -35
-33 -696 -571 -698 -568 -24 37 -186 331 -184 333 2 1 131 65 288 141 157 76
350 171 430 211 80 39 148 72 151 72 3 1 12 -38 19 -85z m1839 26 c47 -11 92
-24 99 -29 10 -6 11 -25 5 -81 l-8 -74 -90 -26 c-81 -24 -113 -41 -315 -175
l-225 -149 -905 -32 c-498 -18 -906 -31 -907 -30 -3 3 514 428 542 445 20 12
89 5 581 -58 308 -39 580 -74 607 -78 l47 -6 113 110 c213 206 266 227 456
183z m4936 -52 c-4 -13 -20 -65 -37 -115 l-29 -93 -114 0 -115 0 0 115 0 115
151 0 150 0 -6 -22z m1510 -73 c18 -49 35 -100 39 -112 l7 -23 -620 0 c-342 0
-621 4 -621 9 0 10 60 202 67 214 2 4 250 6 550 5 l545 -3 33 -90z m585 -20
l0 -115 -80 0 c-44 0 -80 2 -80 4 0 2 -18 54 -40 115 l-39 111 119 0 120 0 0
-115z m-5726 -5 c5 -29 5 -84 -3 -155 -17 -171 -31 -234 -55 -257 -54 -52
-289 -141 -330 -125 -16 6 -17 14 -11 55 8 56 69 240 97 297 42 81 232 241
278 232 8 -1 18 -21 24 -47z m-18056 -56 c66 -33 182 -156 245 -261 67 -112
123 -246 163 -391 44 -162 57 -269 51 -416 -5 -140 -29 -222 -79 -277 l-32
-34 -80 247 c-45 136 -86 252 -91 257 -6 6 -16 7 -23 3 -9 -6 8 -70 68 -255
44 -136 80 -252 80 -258 0 -17 -62 -5 -116 23 -59 29 -167 144 -228 241 -96
154 -177 372 -211 572 -22 127 -22 309 0 390 44 165 131 220 253 159z m16842
-69 c0 -42 -2 -46 -37 -60 -81 -34 -83 -33 -83 24 l0 50 48 15 c71 22 72 21
72 -29z m-162 -56 l-3 -52 -160 -58 c-88 -32 -161 -56 -163 -54 -4 4 309 213
321 214 4 1 7 -22 5 -50z m6598 -21 c9 -29 19 -59 22 -65 3 -9 -7 -13 -33 -13
-29 0 -36 -3 -33 -17 2 -13 15 -19 45 -21 39 -3 42 -6 56 -45 9 -23 77 -215
153 -427 124 -348 138 -393 143 -470 6 -81 7 -85 30 -85 20 0 27 -11 52 -80
16 -44 29 -81 29 -82 0 -2 -6 -3 -14 -3 -8 0 -24 -12 -35 -27 l-20 -28 -1 43
c0 36 -3 43 -17 40 -15 -3 -19 -18 -23 -94 -3 -62 -10 -98 -22 -117 -10 -14
-18 -35 -18 -47 0 -19 6 -20 119 -20 l119 0 32 -87 c17 -49 72 -200 120 -338
48 -137 147 -416 219 -620 106 -299 130 -374 122 -392 -8 -17 -5 -27 10 -47
l19 -25 -36 -3 c-35 -3 -38 -7 -95 -111 -33 -59 -59 -114 -59 -122 0 -11 23
-15 113 -17 l112 -3 3 -272 2 -273 -1820 0 c-1451 0 -1819 3 -1815 13 2 6 47
152 99 322 227 740 265 857 283 870 13 10 15 17 7 25 -8 8 9 75 62 243 40 128
129 414 199 637 168 538 426 1353 478 1514 l43 128 99 2 c82 1 100 4 100 16 0
12 -18 16 -92 18 -51 1 -93 4 -93 6 0 6 33 112 37 119 2 4 292 7 643 7 l638 0
18 -52z m-5126 -38 c46 -46 52 -81 18 -104 -12 -9 -28 -16 -35 -16 -22 0 -53
62 -53 106 0 67 14 70 70 14z m7391 -388 c-11 -207 -23 -415 -26 -462 -32
-554 -35 -313 35 -2230 16 -437 33 -890 36 -1005 l7 -210 -129 -116 c-121
-108 -170 -146 -180 -137 -2 2 -28 73 -59 157 l-55 153 0 664 c0 661 0 663 21
669 38 12 88 65 95 100 7 39 -8 116 -48 245 -16 52 -38 151 -49 219 -18 116
-19 185 -19 1080 l0 956 193 167 c156 136 193 163 195 147 2 -11 -6 -190 -17
-397z m-8715 356 c-4 -29 -13 -134 -21 -232 -9 -99 -18 -182 -20 -185 -3 -2
-112 5 -243 18 -484 45 -735 71 -738 74 -2 2 168 66 379 142 210 77 438 160
507 186 69 26 129 48 133 48 5 1 6 -23 3 -51z m793 -190 l-11 -48 -31 16 c-62
32 -62 36 -5 59 29 12 54 21 55 21 1 -1 -3 -23 -8 -48z m-1514 26 c-5 -3 -104
-40 -220 -83 -165 -61 -210 -81 -209 -94 2 -16 -24 -17 -375 -15 l-376 3 -13
74 c-7 40 -11 75 -9 77 5 5 412 21 747 30 146 4 267 8 269 10 2 2 47 4 100 3
53 0 92 -3 86 -5z m-14998 -35 c137 -66 249 -329 299 -699 23 -170 23 -482 -1
-655 -48 -363 -165 -635 -300 -696 -74 -34 -72 -36 -68 119 2 75 10 400 19
721 16 577 14 626 -15 595 -5 -5 -19 -327 -30 -723 -11 -393 -22 -716 -24
-718 -2 -2 -23 11 -46 27 -80 58 -166 223 -215 411 -52 200 -61 293 -61 599 0
252 3 300 23 412 32 176 65 286 122 403 56 116 102 174 162 204 54 26 80 26
135 0z m-1717 -865 c325 -96 719 -455 886 -808 71 -151 91 -291 55 -381 l-12
-30 -22 30 c-127 175 -456 540 -481 532 -28 -9 -9 -38 97 -145 121 -124 246
-270 324 -379 l47 -66 -22 -18 c-36 -29 -119 -41 -194 -30 -345 56 -786 428
-972 822 -55 116 -76 193 -76 279 1 151 86 226 245 215 39 -2 95 -12 125 -21z
m24392 -299 c16 -43 27 -80 25 -82 -3 -2 -41 -3 -85 -1 l-81 3 45 83 c25 46
51 81 57 79 6 -2 24 -39 39 -82z m650 25 c4 -30 10 -67 13 -82 l5 -28 -129 0
-128 0 -26 78 c-15 42 -27 80 -27 85 0 4 64 6 142 5 l143 -3 7 -55z m-45 -400
c2 -153 -1 -239 -7 -229 -9 15 -170 465 -170 475 0 2 39 3 88 2 l87 -3 2 -245z
m-22879 -280 c1 -75 0 -83 -13 -67 -36 48 -41 204 -12 337 l12 55 6 -120 c3
-66 7 -158 7 -205z m1298 -208 c28 -48 169 -287 313 -531 145 -244 275 -465
289 -490 14 -25 33 -57 42 -71 26 -37 280 -468 280 -475 0 -3 -234 -5 -520 -5
l-520 0 0 830 0 830 33 0 c30 0 35 -6 83 -88z m-1343 -768 c-86 -89 -140 -158
-197 -248 -32 -52 -56 -81 -56 -69 0 34 38 233 70 363 49 201 150 503 213 640
10 20 13 -45 15 -305 l2 -331 -47 -50z m-2245 665 c287 -31 558 -132 690 -257
31 -29 48 -51 37 -47 -167 54 -503 102 -520 75 -12 -19 6 -28 75 -34 133 -13
168 -18 280 -43 157 -34 216 -58 224 -87 25 -100 -73 -184 -273 -233 -95 -24
-372 -23 -506 1 -443 80 -757 306 -656 472 75 124 343 187 649 153z m25993
-245 c42 -139 46 -193 20 -221 -33 -35 -60 -46 -285 -112 -148 -45 -211 -59
-216 -51 -4 6 -19 47 -35 91 l-27 79 78 104 77 105 171 59 c94 33 175 56 180
52 4 -5 21 -52 37 -106z m-9315 -185 c5 -85 40 -720 50 -911 l6 -128 -81 0
c-74 0 -81 2 -81 20 0 10 7 95 15 187 8 92 24 276 35 408 11 132 22 263 25
290 2 28 7 87 11 133 4 45 9 81 11 78 2 -2 6 -37 9 -77z m-14386 -647 l0 -389
-22 -10 c-16 -7 -32 -6 -53 3 -70 30 -189 11 -244 -39 l-24 -22 7 176 c5 166
7 180 36 250 39 92 80 168 133 239 56 76 148 180 158 180 5 0 9 -172 9 -388z
m22897 283 l30 -85 -113 0 -112 0 46 85 c46 82 48 85 83 85 l36 0 30 -85z
m602 10 c6 -42 11 -80 11 -86 0 -6 -39 -9 -101 -7 l-101 3 -23 60 c-44 117
-53 105 83 105 l120 0 11 -75z m-25064 -331 l47 -7 -111 -53 c-124 -59 -326
-187 -342 -215 -22 -42 21 -27 130 46 109 73 275 160 354 185 34 10 41 10 59
-6 87 -80 55 -209 -100 -392 -58 -68 -208 -189 -313 -253 -224 -134 -444 -209
-618 -209 -97 0 -161 21 -201 66 -26 30 -30 42 -30 92 1 101 69 211 217 352
190 181 492 340 718 379 127 22 130 23 190 15z m849 -263 c27 -6 26 -7 -50
-60 -206 -143 -358 -351 -444 -610 -35 -104 -37 -121 -12 -121 15 0 24 17 41
78 79 274 270 523 510 665 l44 26 38 -19 c120 -62 147 -212 74 -406 -34 -91
-65 -144 -230 -394 -167 -252 -180 -276 -251 -438 -85 -196 -142 -271 -237
-307 -58 -22 -100 -15 -163 28 -123 83 -214 311 -214 537 0 162 56 393 132
545 125 249 340 442 528 475 54 9 194 10 234 1z m614 -130 c11 -6 8 -16 -13
-47 -24 -34 -26 -47 -23 -104 2 -48 12 -82 33 -124 l29 -58 -62 -186 c-33
-103 -81 -257 -105 -342 -24 -85 -49 -171 -54 -190 -8 -26 -12 67 -14 370 -6
658 -7 646 59 674 40 16 129 21 150 7z m100 -78 c3 -46 -44 -196 -59 -187 -5
3 -16 21 -24 41 -35 84 -4 198 53 191 24 -3 27 -8 30 -45z m24377 -413 c83 -6
159 -13 171 -15 18 -4 24 -19 42 -128 34 -192 37 -181 -58 -211 -176 -56 -271
-70 -480 -70 l-195 -1 -32 90 c-17 50 -32 93 -32 97 -1 3 14 15 32 26 17 11
86 68 152 127 l120 107 65 -6 c36 -3 133 -11 215 -16z m-24920 -777 l-7 -253
-44 0 -44 0 0 445 0 444 48 77 47 77 3 -269 c2 -148 0 -383 -3 -521z m1795
667 c22 -81 -11 -143 -99 -184 -39 -18 -65 -21 -171 -21 -69 0 -137 3 -152 8
l-27 7 35 103 c19 56 36 108 39 115 3 9 50 12 184 12 l180 0 11 -40z m1076 13
c-22 -114 -52 -443 -55 -593 -5 -285 -116 -1593 -170 -2000 -30 -222 -33 -267
-21 -290 11 -20 11 -20 -815 -20 -454 0 -825 3 -825 8 0 4 12 45 25 92 33 112
81 344 105 505 59 405 57 839 -6 1229 l-18 109 121 356 c104 304 124 356 140
353 157 -21 309 -10 384 29 77 39 120 124 102 198 -6 22 -8 43 -5 46 3 3 239
5 524 5 l520 0 -6 -27z m7704 12 c0 -9 -24 -102 -54 -208 -30 -105 -71 -255
-91 -332 -21 -77 -77 -286 -126 -465 -48 -179 -162 -602 -254 -940 -91 -338
-170 -625 -175 -638 l-10 -22 -695 0 -694 0 -3 -153 -3 -152 -2145 -3 -2145
-2 -90 42 c-49 23 -166 80 -260 127 -164 82 -173 88 -257 174 l-88 90 0 110
c0 61 -5 136 -11 166 -10 53 -5 92 95 636 105 579 207 1169 246 1425 11 74 22
141 25 148 3 9 686 12 3370 12 3009 0 3365 -2 3365 -15z m4443 8 c3 -5 8 -66
11 -138 4 -71 22 -404 41 -740 19 -335 42 -742 51 -903 9 -161 14 -295 12
-297 -4 -4 -74 251 -319 1160 l-92 340 23 285 c12 157 24 288 27 293 2 4 58 7
123 7 65 0 121 -3 123 -7z m4207 0 c0 -7 -54 -184 -275 -908 -153 -501 -258
-848 -476 -1569 -72 -237 -132 -433 -135 -438 -3 -4 -378 -8 -834 -8 l-829 0
-3 153 -3 152 -320 5 c-373 6 -379 8 -511 102 l-84 60 5 222 c5 180 45 2174
45 2222 0 12 256 14 1710 14 941 0 1710 -3 1710 -7z m4717 -123 c34 -97 42
-129 34 -142 -16 -25 -14 -49 6 -70 15 -17 15 -18 -15 -18 -36 0 -46 -12 -116
-143 -26 -48 -44 -92 -41 -97 4 -6 67 -10 154 -10 l148 0 26 -72 c15 -40 99
-278 187 -528 89 -250 201 -567 250 -705 267 -752 350 -988 350 -1001 0 -12
-420 -14 -3105 -14 -1861 0 -3105 4 -3105 9 0 5 31 112 69 238 38 125 108 354
154 508 261 861 657 2157 664 2168 2 4 970 6 2150 5 l2145 -3 45 -125z
m-24077 -420 l0 -410 -60 0 -60 0 0 328 0 327 55 83 c31 45 58 82 60 82 3 0 5
-184 5 -410z m24201 66 c16 -44 29 -81 29 -83 0 -2 -52 -3 -115 -3 -63 0 -115
2 -115 4 0 5 9 21 64 119 26 46 29 48 68 45 l40 -3 29 -79z m582 62 c3 -13 9
-51 13 -85 l7 -63 -96 0 -95 0 -13 38 c-6 20 -20 58 -30 85 l-19 47 114 0
c110 0 114 -1 119 -22z m-10722 -1015 c0 -71 4 -310 8 -533 8 -409 1 -575 -29
-630 l-11 -20 -1990 0 -1991 0 7 27 c3 16 83 309 176 651 93 343 169 626 169
628 0 2 824 4 1830 4 l1830 0 1 -127z m1091 -388 l139 -510 -3 -140 -3 -140
-263 -3 -262 -2 -11 27 c-6 15 -21 49 -34 74 -16 33 -22 59 -19 86 2 21 25
278 50 572 24 294 47 538 50 543 3 5 53 7 111 6 l106 -3 139 -510z m-14905
483 c-3 -8 -6 -5 -6 6 -1 11 2 17 5 13 3 -3 4 -12 1 -19z m-10 -70 c-3 -7 -5
-2 -5 12 0 14 2 19 5 13 2 -7 2 -19 0 -25z m-10 -70 c-3 -8 -6 -5 -6 6 -1 11
2 17 5 13 3 -3 4 -12 1 -19z m-921 -192 c65 -55 16 -154 -70 -143 -49 7 -76
36 -76 84 0 74 88 110 146 59z m469 -1 c17 -16 25 -35 25 -58 0 -48 -27 -77
-76 -84 -33 -4 -45 -1 -67 18 -15 13 -30 38 -33 56 -5 27 -1 37 24 63 39 39
92 41 127 5z m431 8 c-2 -10 -8 -48 -12 -85 -7 -72 -14 -79 -57 -56 -80 42
-52 158 38 158 30 0 35 -3 31 -17z m948 6 c52 -24 57 -101 9 -139 -84 -66
-193 51 -118 125 26 27 68 32 109 14z m14772 -872 c104 -72 131 -86 219 -111
116 -34 262 -89 311 -118 28 -17 56 -63 43 -71 -2 -2 -125 1 -274 5 -673 19
-917 27 -922 32 -2 2 3 59 11 126 9 67 16 144 16 171 l0 49 238 0 238 0 120
-83z m-1248 3 c34 -69 82 -208 82 -241 0 -18 -10 -19 -360 -19 l-360 0 5 23
c30 127 55 250 55 270 0 13 3 27 7 30 4 4 126 6 272 5 l266 -3 33 -65z
m-13965 -45 c34 -71 108 -171 148 -200 l41 -30 -409 -5 c-224 -3 -409 -5 -409
-5 -5 0 30 201 35 208 4 4 43 -6 87 -22 120 -44 190 -55 256 -42 81 17 196 75
210 106 15 33 21 32 41 -10z m2947 -22 c29 -32 76 -75 104 -97 47 -36 237
-134 414 -215 76 -34 92 -51 73 -75 -13 -15 -31 -15 -396 4 -224 12 -550 68
-897 156 -53 13 -111 24 -128 24 l-32 0 7 68 c4 37 8 68 9 69 1 1 18 -2 37 -7
99 -26 387 -38 469 -19 61 14 176 70 230 113 25 19 48 35 51 35 4 1 31 -25 59
-56z m13110 -193 l0 -130 -125 0 c-125 0 -126 0 -114 21 16 31 6 115 -17 141
-10 11 -56 39 -101 60 -46 21 -83 40 -83 41 0 1 99 1 220 -1 l220 -3 0 -129z
m-2744 113 c-17 -56 -33 -188 -26 -214 l9 -29 -2685 0 -2684 0 0 130 0 130
2696 0 c2562 0 2695 -1 2690 -17z m1251 3 c-3 -7 -11 -66 -18 -130 l-13 -116
-233 0 -234 0 8 38 c11 50 7 161 -6 195 l-11 27 256 0 c213 0 255 -2 251 -14z
m-524 -163 c3 -5 -2 -29 -9 -54 l-14 -46 -67 -6 c-89 -9 -340 -8 -476 2 -129
9 -155 26 -148 99 1 9 79 12 355 12 195 0 357 -3 359 -7z m-11750 -38 c436
-105 667 -141 962 -151 116 -4 217 -11 225 -16 27 -17 -520 1 -690 23 -285 36
-669 108 -697 131 -19 15 3 48 31 48 13 0 89 -16 169 -35z m12862 20 c77 -2
249 -8 383 -11 193 -5 242 -9 242 -20 0 -8 -11 -16 -24 -20 -72 -18 -1087 -26
-1148 -9 -24 6 -28 12 -28 42 l0 35 218 -6 c119 -4 280 -8 357 -11z m-14917
-18 c2 -10 -4 -29 -12 -42 l-16 -25 -409 0 c-393 0 -409 1 -426 20 -17 18 -17
21 -1 45 l17 25 422 -2 c397 -3 422 -4 425 -21z"/>
<path d="M5787 17633 c-4 -3 -7 -129 -7 -280 l0 -273 5558 2 5557 3 0 275 0
275 -5551 3 c-3053 1 -5554 -1 -5557 -5z m11073 -273 l0 -240 -5522 2 -5523 3
-3 225 c-1 123 0 230 2 237 4 11 1066 13 5526 13 l5520 0 0 -240z"/>
<path d="M22189 17626 c-205 -73 -264 -312 -114 -462 91 -92 -68 -84 1759 -84
l1611 0 50 24 c110 51 165 132 165 244 0 97 -17 139 -80 204 -94 96 64 88
-1759 88 -1279 -1 -1603 -3 -1632 -14z m3272 -41 c98 -35 159 -119 160 -222 2
-100 -47 -178 -136 -219 l-50 -24 -1599 0 c-1226 0 -1608 3 -1640 12 -64 19
-140 100 -156 167 -31 130 40 252 170 292 14 4 741 8 1616 8 1400 1 1597 -1
1635 -14z"/>
<path d="M13123 16261 c-96 -33 -161 -89 -211 -185 l-27 -51 0 -225 c0 -221 0
-226 26 -280 35 -75 98 -136 177 -173 l67 -32 1044 -3 c1151 -3 1113 -5 1213
59 58 37 99 88 136 166 27 57 27 61 27 253 0 160 -3 204 -18 245 -23 67 -82
143 -141 182 -97 66 -43 63 -1195 63 -980 -1 -1049 -2 -1098 -19z m2232 -53
c62 -32 129 -103 158 -166 20 -43 22 -63 22 -237 0 -126 -4 -204 -13 -232 -16
-53 -65 -118 -120 -160 -87 -66 -38 -64 -1198 -61 -1043 3 -1049 3 -1095 24
-95 44 -159 121 -185 226 -22 84 -15 361 10 430 20 54 81 127 133 159 81 50
37 48 1173 46 l1065 -2 50 -27z"/>
<path d="M16363 16261 c-134 -46 -222 -154 -243 -298 -12 -86 -12 -248 0 -332
18 -129 92 -229 208 -284 l67 -32 1044 -3 c1164 -3 1117 -5 1221 66 69 47 125
127 146 211 13 50 15 100 12 235 -4 147 -7 179 -27 228 -31 79 -97 150 -179
190 l-67 33 -1065 2 c-1004 2 -1068 2 -1117 -16z m2229 -54 c82 -40 143 -112
169 -198 19 -61 21 -89 17 -237 -3 -159 -5 -170 -32 -229 -33 -72 -93 -133
-164 -166 l-47 -22 -1044 -3 c-1153 -3 -1099 -5 -1197 60 -54 37 -108 110
-126 171 -17 56 -17 368 0 424 28 95 111 182 204 214 50 18 106 18 1108 16
l1055 -2 57 -28z"/>
<path d="M19623 16268 c-61 -13 -161 -84 -200 -142 -57 -83 -65 -130 -61 -354
3 -178 5 -202 25 -245 33 -70 113 -149 186 -183 l62 -29 1044 -3 c918 -2 1051
-1 1105 13 114 29 206 110 249 217 17 44 21 80 25 217 5 184 -6 260 -46 334
-33 62 -99 122 -170 155 l-57 27 -1060 2 c-647 0 -1077 -3 -1102 -9z m2184
-49 c72 -28 144 -94 180 -168 28 -55 28 -58 28 -256 0 -198 0 -200 -28 -256
-32 -66 -99 -132 -165 -162 l-47 -22 -1065 0 -1065 0 -57 27 c-75 35 -141 104
-167 174 -18 48 -21 77 -21 237 0 100 5 198 10 217 25 91 117 185 210 214 38
12 212 15 1087 15 l1042 1 58 -21z"/>
<path d="M19430 14445 c0 -48 3 -56 18 -53 12 2 18 14 20 40 3 35 5 37 40 40
56 5 40 23 -23 26 l-55 3 0 -56z"/>
<path d="M19670 14485 c0 -12 18 -15 100 -15 82 0 100 3 100 15 0 12 -18 15
-100 15 -82 0 -100 -3 -100 -15z"/>
<path d="M19995 14490 c-3 -5 0 -13 8 -15 24 -10 187 -1 187 10 0 14 -186 19
-195 5z"/>
<path d="M20320 14485 c0 -12 18 -15 100 -15 82 0 100 3 100 15 0 12 -18 15
-100 15 -82 0 -100 -3 -100 -15z"/>
<path d="M20650 14485 c0 -13 14 -15 98 -13 126 4 124 22 -3 26 -81 2 -95 0
-95 -13z"/>
<path d="M20972 14488 c3 -9 35 -14 101 -16 82 -2 97 0 97 13 0 12 -17 15
-101 15 -76 0 -100 -3 -97 -12z"/>
<path d="M21300 14485 c0 -12 18 -15 100 -15 82 0 100 3 100 15 0 12 -18 15
-100 15 -82 0 -100 -3 -100 -15z"/>
<path d="M21622 14488 c3 -9 35 -14 101 -16 82 -2 97 0 97 13 0 12 -17 15
-101 15 -76 0 -100 -3 -97 -12z"/>
<path d="M21950 14485 c0 -12 18 -15 100 -15 82 0 100 3 100 15 0 12 -18 15
-100 15 -82 0 -100 -3 -100 -15z"/>
<path d="M22275 14490 c-3 -5 0 -13 8 -15 24 -10 187 -1 187 10 0 14 -186 19
-195 5z"/>
<path d="M22600 14485 c0 -12 18 -15 100 -15 82 0 100 3 100 15 0 12 -18 15
-100 15 -82 0 -100 -3 -100 -15z"/>
<path d="M22930 14485 c0 -13 14 -15 98 -13 126 4 124 22 -3 26 -81 2 -95 0
-95 -13z"/>
<path d="M23250 14485 c0 -12 18 -15 100 -15 82 0 100 3 100 15 0 12 -18 15
-100 15 -82 0 -100 -3 -100 -15z"/>
<path d="M23580 14485 c0 -13 14 -15 98 -13 126 4 124 22 -3 26 -81 2 -95 0
-95 -13z"/>
<path d="M23902 14488 c3 -9 35 -14 101 -16 82 -2 97 0 97 13 0 12 -17 15
-101 15 -76 0 -100 -3 -97 -12z"/>
<path d="M24230 14485 c0 -13 15 -15 97 -13 66 2 98 7 101 16 3 9 -21 12 -97
12 -84 0 -101 -3 -101 -15z"/>
<path d="M24552 14488 c3 -9 35 -14 101 -16 82 -2 97 0 97 13 0 12 -17 15
-101 15 -76 0 -100 -3 -97 -12z"/>
<path d="M24880 14485 c0 -12 18 -15 100 -15 82 0 100 3 100 15 0 12 -18 15
-100 15 -82 0 -100 -3 -100 -15z"/>
<path d="M25207 14494 c-13 -13 5 -24 38 -24 32 0 34 -2 37 -37 2 -27 8 -39
21 -41 14 -3 17 5 17 52 l0 56 -53 0 c-30 0 -57 -3 -60 -6z"/>
<path d="M19437 14263 c-4 -3 -7 -49 -7 -100 0 -85 2 -94 18 -91 14 3 17 17
20 89 2 64 -1 89 -11 97 -8 7 -17 9 -20 5z"/>
<path d="M25284 14247 c-3 -8 -4 -49 -2 -93 3 -66 6 -79 21 -82 15 -3 17 6 17
92 0 80 -3 96 -15 96 -9 0 -18 -6 -21 -13z"/>
<path d="M19437 13943 c-4 -3 -7 -49 -7 -100 0 -85 2 -94 18 -91 14 3 17 17
20 89 2 64 -1 89 -11 97 -8 7 -17 9 -20 5z"/>
<path d="M25291 13936 c-8 -9 -11 -45 -9 -97 3 -70 6 -84 21 -87 15 -3 17 6
17 92 0 95 -7 118 -29 92z"/>
<path d="M19020 13705 c-484 -79 -829 -532 -772 -1016 19 -164 69 -290 181
-465 13 -19 7 -44 -47 -221 -34 -111 -62 -208 -62 -217 0 -9 8 -16 19 -16 11
0 106 41 212 90 105 50 197 90 203 90 6 0 45 -14 88 -30 165 -64 402 -77 565
-31 40 12 84 21 97 21 13 0 29 6 35 14 7 8 36 27 64 41 226 118 401 336 470
590 29 105 31 354 4 453 -23 87 -64 186 -102 251 l-33 55 20 27 c25 34 26 107
2 149 -38 63 -128 84 -191 44 -21 -13 -27 -11 -82 26 -186 127 -443 183 -671
145z m296 -36 c121 -21 310 -100 382 -159 l24 -20 -54 -63 c-207 -248 -563
-655 -569 -651 -4 2 -59 95 -122 207 -64 111 -127 213 -141 226 -36 34 -118
40 -163 12 -45 -28 -66 -74 -60 -130 3 -36 40 -108 169 -336 91 -159 171 -300
178 -312 18 -28 80 -63 112 -63 65 0 84 18 355 333 147 172 317 369 377 439
61 70 114 124 118 120 24 -24 93 -186 114 -268 29 -115 33 -281 9 -393 -74
-353 -348 -624 -704 -696 -130 -27 -308 -17 -426 22 -49 17 -106 37 -125 46
l-35 15 -190 -88 c-104 -49 -191 -87 -193 -86 -1 2 23 90 55 196 53 176 56
193 43 215 -118 187 -151 264 -176 407 -70 400 151 803 529 966 145 63 345 88
493 61z m569 -163 c40 -17 55 -42 55 -94 0 -37 -21 -63 -405 -510 -355 -413
-409 -472 -439 -477 -68 -13 -78 -1 -269 335 -196 344 -201 358 -148 411 39
38 97 40 132 5 13 -13 73 -111 133 -217 115 -204 143 -249 155 -249 4 0 41 39
82 88 42 48 194 224 338 392 229 266 289 328 324 330 4 0 23 -6 42 -14z"/>
<path d="M25285 13608 c-3 -13 -5 -57 -3 -98 3 -62 6 -75 21 -78 16 -3 17 5
15 94 -2 65 -7 99 -15 101 -7 3 -15 -6 -18 -19z"/>
<path d="M25285 13297 c-3 -7 -5 -51 -3 -98 3 -71 6 -84 21 -87 16 -3 17 5 15
94 -2 67 -7 99 -15 102 -7 2 -15 -3 -18 -11z"/>
<path d="M25287 12984 c-11 -11 -8 -167 3 -184 20 -32 31 6 28 95 -3 81 -12
108 -31 89z"/>
<path d="M25286 12654 c-9 -24 -7 -157 3 -173 20 -31 31 3 31 95 0 74 -3 94
-14 94 -8 0 -17 -7 -20 -16z"/>
<path d="M25287 12343 c-10 -10 -8 -166 2 -182 20 -31 31 3 31 95 0 72 -3 94
-13 94 -8 0 -17 -3 -20 -7z"/>
<path d="M25287 12023 c-4 -3 -7 -21 -7 -40 0 -31 -2 -33 -34 -33 -19 0 -37
-4 -40 -9 -11 -17 23 -32 66 -29 l43 3 3 58 c2 43 0 57 -11 57 -7 0 -17 -3
-20 -7z"/>
<path d="M19672 11933 c3 -16 16 -18 98 -18 82 0 95 2 98 18 3 15 -7 17 -98
17 -91 0 -101 -2 -98 -17z"/>
<path d="M19997 11943 c-4 -3 -2 -12 4 -20 16 -19 185 -18 192 1 3 8 3 17 0
20 -9 8 -188 8 -196 -1z"/>
<path d="M20322 11933 c3 -16 16 -18 98 -18 82 0 95 2 98 18 3 15 -7 17 -98
17 -91 0 -101 -2 -98 -17z"/>
<path d="M20652 11933 c3 -15 16 -18 88 -21 85 -2 118 6 106 27 -5 7 -43 11
-102 11 -86 0 -95 -2 -92 -17z"/>
<path d="M20974 11939 c-13 -22 15 -30 102 -27 75 3 89 6 92 21 3 15 -6 17
-92 17 -57 0 -97 -4 -102 -11z"/>
<path d="M21302 11933 c3 -16 15 -18 98 -18 78 0 95 3 95 15 0 12 -19 16 -98
18 -90 2 -98 1 -95 -15z"/>
<path d="M21624 11939 c-13 -22 15 -30 102 -27 75 3 89 6 92 21 3 15 -6 17
-92 17 -57 0 -97 -4 -102 -11z"/>
<path d="M21952 11933 c3 -16 16 -18 98 -18 82 0 95 2 98 18 3 15 -7 17 -98
17 -91 0 -101 -2 -98 -17z"/>
<path d="M22276 11941 c-13 -21 25 -32 105 -29 70 3 84 6 87 21 3 15 -6 17
-92 17 -52 0 -97 -4 -100 -9z"/>
<path d="M22602 11933 c3 -16 16 -18 98 -18 82 0 95 2 98 18 3 15 -7 17 -98
17 -91 0 -101 -2 -98 -17z"/>
<path d="M22932 11933 c3 -15 17 -18 87 -21 80 -3 118 8 105 29 -3 5 -48 9
-100 9 -86 0 -95 -2 -92 -17z"/>
<path d="M23254 11939 c-13 -22 15 -30 102 -27 75 3 89 6 92 21 3 15 -6 17
-92 17 -57 0 -97 -4 -102 -11z"/>
<path d="M24232 11933 c3 -16 15 -18 98 -18 78 0 95 3 95 15 0 12 -19 16 -98
18 -90 2 -98 1 -95 -15z"/>
<path d="M24554 11939 c-13 -22 15 -30 102 -27 75 3 89 6 92 21 3 15 -6 17
-92 17 -57 0 -97 -4 -102 -11z"/>
<path d="M24882 11933 c3 -16 15 -18 98 -18 78 0 95 3 95 15 0 12 -19 16 -98
18 -90 2 -98 1 -95 -15z"/>
<path d="M19430 11227 c0 -30 3 -57 7 -60 12 -13 33 15 33 44 0 25 4 29 29 29
29 0 57 21 44 33 -3 4 -30 7 -60 7 l-53 0 0 -53z"/>
<path d="M19672 11263 c3 -16 16 -18 98 -18 82 0 95 2 98 18 3 15 -7 17 -98
17 -91 0 -101 -2 -98 -17z"/>
<path d="M19997 11273 c-4 -3 -2 -12 4 -20 8 -9 37 -13 94 -13 57 0 86 4 94
13 18 23 2 27 -94 27 -50 0 -95 -3 -98 -7z"/>
<path d="M20320 11265 c0 -20 32 -26 120 -23 62 2 75 6 78 21 3 15 -7 17 -97
17 -83 0 -101 -3 -101 -15z"/>
<path d="M20652 11263 c3 -15 16 -18 88 -21 85 -2 118 6 106 27 -5 7 -43 11
-102 11 -86 0 -95 -2 -92 -17z"/>
<path d="M20974 11269 c-12 -21 21 -29 106 -27 72 3 85 6 88 21 3 15 -6 17
-92 17 -59 0 -97 -4 -102 -11z"/>
<path d="M21302 11263 c3 -15 16 -18 88 -21 85 -2 118 6 106 27 -5 7 -43 11
-102 11 -86 0 -95 -2 -92 -17z"/>
<path d="M21624 11269 c-12 -21 21 -29 106 -27 72 3 85 6 88 21 3 15 -6 17
-92 17 -59 0 -97 -4 -102 -11z"/>
<path d="M21952 11263 c3 -15 16 -19 78 -21 88 -3 120 3 120 23 0 12 -18 15
-101 15 -90 0 -100 -2 -97 -17z"/>
<path d="M22277 11273 c-4 -3 -2 -12 4 -20 8 -9 37 -13 94 -13 57 0 86 4 94
13 18 23 2 27 -94 27 -50 0 -95 -3 -98 -7z"/>
<path d="M22602 11263 c3 -16 16 -18 98 -18 82 0 95 2 98 18 3 15 -7 17 -98
17 -91 0 -101 -2 -98 -17z"/>
<path d="M22932 11263 c3 -15 17 -18 87 -21 80 -3 118 8 105 29 -3 5 -48 9
-100 9 -86 0 -95 -2 -92 -17z"/>
<path d="M23250 11265 c0 -20 32 -26 120 -23 62 2 75 6 78 21 3 15 -7 17 -97
17 -83 0 -101 -3 -101 -15z"/>
<path d="M23582 11263 c3 -15 16 -18 88 -21 85 -2 118 6 106 27 -5 7 -43 11
-102 11 -86 0 -95 -2 -92 -17z"/>
<path d="M19430 10946 c0 -52 4 -97 9 -100 21 -13 32 25 29 105 -3 70 -6 84
-20 87 -16 3 -18 -6 -18 -92z"/>
<path d="M19430 10625 c0 -86 2 -96 18 -93 15 3 17 15 17 93 0 78 -2 90 -17
93 -16 3 -18 -7 -18 -93z"/>
<path d="M19430 10305 c0 -86 2 -96 18 -93 15 3 17 15 17 93 0 78 -2 90 -17
93 -16 3 -18 -7 -18 -93z"/>
<path d="M19437 10083 c-4 -3 -7 -49 -7 -100 0 -85 2 -94 18 -91 14 3 17 17
20 89 2 64 -1 89 -11 97 -8 7 -17 9 -20 5z"/>
<path d="M20324 8719 c-13 -22 15 -30 102 -27 75 3 89 6 92 21 3 15 -6 17 -92
17 -57 0 -97 -4 -102 -11z"/>
<path d="M20652 8713 c3 -16 15 -18 98 -18 78 0 95 3 95 15 0 12 -19 16 -98
18 -90 2 -98 1 -95 -15z"/>
<path d="M20974 8719 c-13 -22 15 -30 102 -27 75 3 89 6 92 21 3 15 -6 17 -92
17 -57 0 -97 -4 -102 -11z"/>
<path d="M21302 8713 c3 -16 15 -18 98 -18 78 0 95 3 95 15 0 12 -19 16 -98
18 -90 2 -98 1 -95 -15z"/>
<path d="M21625 8720 c-14 -23 11 -30 101 -30 87 0 94 1 94 20 0 19 -7 20 -94
20 -53 0 -98 -4 -101 -10z"/>
<path d="M21952 8713 c3 -16 15 -18 98 -18 78 0 95 3 95 15 0 12 -19 16 -98
18 -90 2 -98 1 -95 -15z"/>
<path d="M22275 8720 c-14 -23 11 -30 100 -30 70 0 94 3 98 14 3 8 3 17 0 20
-11 10 -191 7 -198 -4z"/>
<path d="M22605 8719 c-14 -22 14 -30 101 -27 71 2 89 6 89 18 0 12 -18 16
-92 18 -60 2 -94 -1 -98 -9z"/>
<path d="M22930 8710 c0 -20 5 -21 98 -18 78 2 97 6 97 18 0 12 -19 16 -97 18
-93 3 -98 2 -98 -18z"/>
<path d="M19997 8054 c-3 -3 -3 -12 0 -20 4 -11 28 -14 98 -14 70 0 94 3 98
14 9 23 -2 26 -98 26 -50 0 -94 -3 -98 -6z"/>
<path d="M20324 8049 c-13 -22 15 -30 102 -27 75 3 89 6 92 21 3 15 -6 17 -92
17 -57 0 -97 -4 -102 -11z"/>
<path d="M20652 8043 c3 -16 15 -18 98 -18 78 0 95 3 95 15 0 12 -19 16 -98
18 -90 2 -98 1 -95 -15z"/>
<path d="M20974 8049 c-13 -22 15 -30 102 -27 75 3 89 6 92 21 3 15 -6 17 -92
17 -57 0 -97 -4 -102 -11z"/>
<path d="M21302 8043 c3 -16 15 -18 98 -18 78 0 95 3 95 15 0 12 -19 16 -98
18 -90 2 -98 1 -95 -15z"/>
<path d="M21624 8049 c-13 -22 15 -30 102 -27 75 3 89 6 92 21 3 15 -6 17 -92
17 -57 0 -97 -4 -102 -11z"/>
<path d="M21952 8043 c3 -16 15 -18 98 -18 78 0 95 3 95 15 0 12 -19 16 -98
18 -90 2 -98 1 -95 -15z"/>
<path d="M22277 8054 c-3 -3 -3 -12 0 -20 7 -19 176 -20 192 -1 6 8 8 17 4 20
-8 9 -187 9 -196 1z"/>
<path d="M22602 8043 c3 -16 16 -18 98 -18 82 0 95 2 98 18 3 15 -7 17 -98 17
-91 0 -101 -2 -98 -17z"/>
<path d="M22930 8040 c0 -19 7 -20 94 -20 71 0 95 3 99 14 9 23 -2 26 -100 26
-86 0 -93 -1 -93 -20z"/>
<path d="M11394 8029 c-3 -6 0 -15 7 -20 8 -5 575 -8 1294 -6 1130 2 1280 4
1280 17 0 13 -151 15 -1287 18 -938 1 -1289 -1 -1294 -9z"/>
<path d="M11394 7519 c-3 -6 -2 -15 3 -20 5 -5 525 -8 1294 -7 1133 3 1284 5
1284 18 0 13 -151 15 -1287 18 -921 1 -1289 -1 -1294 -9z"/>
<path d="M19430 7406 c0 -52 4 -97 9 -100 21 -13 32 25 29 105 -3 70 -6 84
-20 87 -16 3 -18 -6 -18 -92z"/>
<path d="M19430 7085 c0 -86 2 -96 18 -93 15 3 17 15 17 93 0 78 -2 90 -17 93
-16 3 -18 -7 -18 -93z"/>
<path d="M11400 7010 c-10 -6 -12 -12 -4 -20 7 -7 411 -9 1295 -8 1133 3 1284
5 1284 18 0 13 -150 15 -1280 17 -791 2 -1286 -1 -1295 -7z"/>
<path d="M19430 6765 c0 -86 2 -96 18 -93 15 3 17 15 17 93 0 78 -2 90 -17 93
-16 3 -18 -7 -18 -93z"/>
<path d="M19437 6543 c-4 -3 -7 -49 -7 -100 0 -85 2 -94 18 -91 14 3 17 17 20
89 2 64 -1 89 -11 97 -8 7 -17 9 -20 5z"/>
<path d="M11395 6491 c-3 -6 3 -15 14 -20 13 -8 420 -11 1284 -11 1046 0 1266
2 1276 13 6 8 8 17 4 20 -10 11 -2571 8 -2578 -2z"/>
<path d="M19437 6223 c-4 -3 -7 -49 -7 -100 0 -85 2 -94 18 -91 14 3 17 17 20
89 2 64 -1 89 -11 97 -8 7 -17 9 -20 5z"/>
<path d="M11394 5979 c-3 -6 -2 -15 3 -20 5 -5 525 -8 1294 -7 1133 3 1284 5
1284 18 0 13 -151 15 -1287 18 -921 1 -1289 -1 -1294 -9z"/>
<path d="M19437 5903 c-4 -3 -7 -48 -7 -100 0 -73 3 -93 14 -93 20 0 26 23 26
100 0 87 -10 116 -33 93z"/>
<path d="M19434 5576 c-3 -7 -4 -33 -2 -57 l3 -44 53 -3 c47 -3 52 -1 52 17 0
17 -6 21 -35 21 -30 0 -35 3 -35 24 0 48 -23 75 -36 42z"/>
<path d="M19675 5499 c-14 -22 14 -30 101 -27 71 2 89 6 89 18 0 12 -18 16
-92 18 -60 2 -94 -1 -98 -9z"/>
<path d="M20000 5490 c0 -19 7 -20 93 -20 98 0 109 3 100 26 -4 11 -28 14 -99
14 -87 0 -94 -1 -94 -20z"/>
<path d="M20325 5500 c-14 -23 10 -30 101 -30 86 0 95 2 92 18 -3 14 -17 17
-95 20 -55 2 -94 -1 -98 -8z"/>
<path d="M20650 5490 c0 -20 5 -21 98 -18 78 2 97 6 97 18 0 12 -19 16 -97 18
-93 3 -98 2 -98 -18z"/>
<path d="M20975 5500 c-14 -23 11 -30 101 -30 87 0 94 1 94 20 0 19 -7 20 -94
20 -53 0 -98 -4 -101 -10z"/>
<path d="M21307 5504 c-4 -4 -7 -13 -7 -21 0 -11 20 -13 98 -11 78 2 97 6 97
18 0 12 -18 16 -90 18 -50 1 -94 0 -98 -4z"/>
<path d="M21625 5500 c-14 -23 11 -30 101 -30 87 0 94 1 94 20 0 19 -7 20 -94
20 -53 0 -98 -4 -101 -10z"/>
<path d="M21957 5504 c-4 -4 -7 -13 -7 -21 0 -11 20 -13 98 -11 78 2 97 6 97
18 0 12 -18 16 -90 18 -50 1 -94 0 -98 -4z"/>
<path d="M3197 14273 c-6 -9 -307 -1017 -307 -1027 0 -3 24 -6 54 -6 53 0 55
1 65 33 6 17 74 244 151 502 77 259 143 478 146 488 5 15 -2 17 -50 17 -30 0
-57 -3 -59 -7z"/>
<path d="M2563 13922 l-193 -137 0 -80 0 -80 189 -132 c104 -73 192 -133 195
-133 3 0 6 37 6 83 l0 82 -117 85 c-64 47 -118 90 -119 95 -2 6 51 48 116 95
l120 85 0 87 c0 49 -1 88 -2 87 -2 0 -90 -62 -195 -137z"/>
<path d="M3436 13968 l1 -83 119 -87 c65 -47 119 -89 119 -92 0 -3 -54 -45
-120 -93 l-119 -88 -1 -83 c0 -45 2 -82 5 -82 3 0 91 60 195 133 l190 133 0
79 0 79 -189 133 c-104 73 -192 133 -195 133 -3 0 -6 -37 -5 -82z"/>
<path d="M26726 13994 c-16 -48 -14 -64 8 -64 13 0 48 95 38 104 -15 16 -32 1
-46 -40z"/>
<path d="M26653 13643 c-8 -23 -23 -33 -49 -33 -25 0 -40 -28 -20 -36 15 -6
82 10 105 25 12 8 13 14 3 35 -13 30 -30 34 -39 9z"/>
<path d="M12346 12395 c-153 -42 -303 -166 -368 -305 -45 -94 -61 -165 -61
-260 0 -157 56 -294 168 -406 325 -328 874 -171 981 281 32 137 5 300 -71 431
-66 113 -215 223 -351 259 -71 18 -230 18 -298 0z m295 -41 c141 -42 272 -147
337 -270 162 -309 -7 -688 -348 -779 -283 -76 -591 113 -661 405 -29 122 -9
265 53 383 63 117 215 236 343 266 67 15 216 13 276 -5z"/>
<path d="M17733 12119 c-24 -7 -33 -16 -33 -30 0 -17 4 -20 23 -15 48 15 97
18 125 8 39 -13 64 0 41 23 -19 20 -112 28 -156 14z"/>
<path d="M17449 12076 c-83 -30 -133 -76 -109 -100 7 -7 19 -2 37 17 36 33 93
57 138 57 29 0 36 3 33 18 -4 22 -51 26 -99 8z"/>
<path d="M17817 11954 c-10 -11 -8 -63 3 -85 28 -52 84 3 58 57 -13 28 -46 43
-61 28z"/>
<path d="M17489 11896 c-22 -48 21 -115 55 -87 20 17 20 60 0 89 -20 29 -42
28 -55 -2z"/>
<path d="M6036 11438 c-9 -35 -7 -101 4 -118 16 -24 30 6 30 62 0 72 -20 106
-34 56z"/>
<path d="M5280 11125 c0 -2 9 -28 20 -58 33 -87 106 -147 180 -147 30 0 30 0
30 -54 0 -63 15 -109 33 -103 9 3 11 32 8 113 -1 60 -5 111 -7 113 -2 2 -12
-3 -22 -12 -50 -45 -132 -3 -177 91 -20 40 -36 62 -47 62 -10 0 -18 -2 -18 -5z"/>
<path d="M5883 11023 c-20 -7 -15 -29 13 -63 34 -40 74 -60 119 -60 28 0 35 4
35 20 0 17 -7 20 -39 20 -38 0 -78 27 -106 72 -5 9 -16 14 -22 11z"/>
<path d="M24232 11263 c3 -16 15 -18 98 -18 78 0 95 3 95 15 0 12 -19 16 -98
18 -90 2 -98 1 -95 -15z"/>
<path d="M24554 11269 c-12 -21 21 -29 106 -27 72 3 85 6 88 21 3 15 -6 17
-92 17 -59 0 -97 -4 -102 -11z"/>
<path d="M25284 11027 c-3 -8 -4 -49 -2 -93 3 -66 6 -79 21 -82 15 -3 17 6 17
92 0 80 -3 96 -15 96 -9 0 -18 -6 -21 -13z"/>
<path d="M25284 10707 c-3 -8 -4 -49 -2 -93 3 -66 6 -79 21 -82 15 -3 17 6 17
92 0 80 -3 96 -15 96 -9 0 -18 -6 -21 -13z"/>
<path d="M25284 10387 c-3 -8 -4 -49 -2 -93 3 -66 6 -79 21 -82 15 -3 17 6 17
92 0 80 -3 96 -15 96 -9 0 -18 -6 -21 -13z"/>
<path d="M25291 10076 c-8 -9 -11 -45 -9 -97 3 -70 6 -84 21 -87 15 -3 17 6
17 92 0 95 -7 118 -29 92z"/>
<path d="M25285 9748 c-3 -13 -5 -57 -3 -98 3 -62 6 -75 21 -78 16 -3 17 5 15
94 -2 65 -7 99 -15 101 -7 3 -15 -6 -18 -19z"/>
<path d="M25285 9437 c-3 -7 -5 -52 -3 -98 2 -67 6 -84 18 -84 12 0 15 17 15
94 0 67 -4 96 -12 98 -7 3 -15 -2 -18 -10z"/>
<path d="M25287 9124 c-11 -11 -8 -167 3 -184 20 -32 31 6 28 95 -3 81 -12
108 -31 89z"/>
<path d="M25287 8803 c-4 -3 -7 -21 -7 -39 0 -31 -2 -33 -37 -36 -26 -2 -38
-8 -38 -18 0 -12 13 -15 55 -15 l55 0 3 58 c2 43 0 57 -11 57 -7 0 -17 -3 -20
-7z"/>
<path d="M23904 8719 c-13 -22 15 -30 102 -27 75 3 89 6 92 21 3 15 -6 17 -92
17 -57 0 -97 -4 -102 -11z"/>
<path d="M24232 8713 c3 -16 15 -18 98 -18 78 0 95 3 95 15 0 12 -19 16 -98
18 -90 2 -98 1 -95 -15z"/>
<path d="M1656 7812 c-3 -5 17 -74 45 -153 28 -79 52 -150 54 -156 5 -15 31
-17 39 -5 4 7 -61 209 -95 295 -11 26 -32 36 -43 19z"/>
<path d="M23904 8049 c-13 -22 15 -30 102 -27 75 3 89 6 92 21 3 15 -6 17 -92
17 -57 0 -97 -4 -102 -11z"/>
<path d="M24232 8043 c3 -16 15 -18 98 -18 78 0 95 3 95 15 0 12 -19 16 -98
18 -90 2 -98 1 -95 -15z"/>
<path d="M24554 8049 c-13 -22 15 -30 102 -27 75 3 89 6 92 21 3 15 -6 17 -92
17 -57 0 -97 -4 -102 -11z"/>
<path d="M25291 6536 c-8 -9 -11 -45 -9 -97 3 -70 6 -84 21 -87 15 -3 17 6 17
92 0 95 -7 118 -29 92z"/>
<path d="M25285 6208 c-3 -13 -5 -57 -3 -98 3 -62 6 -75 21 -78 16 -3 17 5 15
94 -2 65 -7 99 -15 101 -7 3 -15 -6 -18 -19z"/>
<path d="M25285 5888 c-3 -13 -5 -57 -3 -98 3 -62 6 -75 21 -78 16 -3 17 5 15
94 -2 65 -7 99 -15 101 -7 3 -15 -6 -18 -19z"/>
<path d="M25287 5584 c-4 -4 -7 -22 -7 -40 0 -31 -2 -33 -37 -36 -26 -2 -38
-8 -38 -18 0 -12 13 -15 55 -15 l55 0 0 54 c0 50 -11 72 -28 55z"/>
<path d="M22930 5490 c0 -19 7 -20 93 -20 98 0 109 3 100 26 -4 11 -28 14 -99
14 -87 0 -94 -1 -94 -20z"/>
<path d="M23255 5500 c-14 -23 10 -30 101 -30 86 0 95 2 92 18 -3 14 -17 17
-95 20 -55 2 -94 -1 -98 -8z"/>
<path d="M23580 5490 c0 -20 5 -21 98 -18 78 2 97 6 97 18 0 12 -19 16 -97 18
-93 3 -98 2 -98 -18z"/>
<path d="M23905 5500 c-14 -23 10 -30 101 -30 86 0 95 2 92 18 -3 14 -17 17
-95 20 -55 2 -94 -1 -98 -8z"/>
<path d="M24237 5504 c-4 -4 -7 -13 -7 -21 0 -11 20 -13 98 -11 78 2 97 6 97
18 0 12 -18 16 -90 18 -50 1 -94 0 -98 -4z"/>
<path d="M24555 5500 c-14 -23 11 -30 101 -30 87 0 94 1 94 20 0 19 -7 20 -94
20 -53 0 -98 -4 -101 -10z"/>
<path d="M24887 5504 c-4 -4 -7 -13 -7 -21 0 -11 20 -13 98 -11 78 2 97 6 97
18 0 12 -18 16 -90 18 -50 1 -94 0 -98 -4z"/>
<path d="M2682 7418 c2 -57 6 -73 18 -73 12 0 15 14 15 70 0 59 -3 70 -18 73
-16 3 -18 -4 -15 -70z"/>
<path d="M955 6720 c-10 -16 -1 -24 87 -78 46 -28 126 -85 178 -126 52 -42
100 -74 105 -72 39 12 -50 94 -240 220 -99 66 -119 74 -130 56z"/>
<path d="M825 5511 c-27 -4 -41 -12 -43 -24 -3 -16 3 -18 52 -16 64 3 81 11
73 33 -7 17 -15 17 -82 7z"/>
<path d="M997 4192 c-29 -30 -36 -62 -14 -62 16 0 77 62 77 78 0 22 -36 13
-63 -16z"/>
</g>
</svg>
